Coordinates
version=1
nRows=9
nColumns=24
inDegrees=yes

Units are S.I. units (second, meters, Newtons, ...)
Angles are in degrees.

endheader
time	pelvis_tilt	pelvis_list	pelvis_rotation	pelvis_tx	pelvis_ty	pelvis_tz	hip_flexion_r	hip_adduction_r	hip_rotation_r	knee_angle_r	ankle_angle_r	subtalar_angle_r	mtp_angle_r	hip_flexion_l	hip_adduction_l	hip_rotation_l	knee_angle_l	ankle_angle_l	subtalar_angle_l	mtp_angle_l	lumbar_extension	lumbar_bending	lumbar_rotation
      1.00450000	     -5.24119298	      1.06377186	     -2.85630047	      0.06366335	      1.02485933	      0.29319638	    -14.40177264	      0.14064536	     -1.51346817	    -10.62638124	     19.58078591	      5.53940248	      4.55982646	     31.94869284	     -0.99074176	     -2.13620587	     -4.37018059	      9.86430760	      6.21344047	      1.09024994	     -8.68444581	      0.04021302	      3.96260663
      1.00866667	     -5.23302671	      1.14972105	     -2.99430886	      0.07015734	      1.02415496	      0.29294349	    -14.51058197	     -0.05875207	     -1.55226885	    -11.16007018	     19.45457180	      5.77913389	      4.77313726	     31.96130733	     -0.89539246	     -1.98454891	     -4.98770265	      9.49880628	      5.88792358	      1.14229087	     -8.64383367	     -0.16071606	      4.04010244
      1.01283333	     -5.22505078	      1.25631014	     -3.14124334	      0.07671087	      1.02352165	      0.29273888	    -14.62157865	     -0.27586795	     -1.51294675	    -11.68109732	     19.19753449	      5.89103316	      4.91459552	     31.97007511	     -0.79200708	     -1.91624887	     -5.62125770	      9.09582437	      5.70037060	      1.17342932	     -8.60109599	     -0.41236385	      4.03683034
      1.01700000	     -5.22776515	      1.34847305	     -3.26973756	      0.08321701	      1.02290817	      0.29242030	    -14.66869896	     -0.48943358	     -1.59871847	    -12.30847746	     18.98724809	      6.14909522	      5.42756686	     31.98946243	     -0.68053343	     -1.71074549	     -6.26023261	      8.63507950	      5.25980617	      1.29301936	     -8.55342274	     -0.61360950	      4.10221261
      1.02116667	     -5.22859857	      1.45796387	     -3.38903222	      0.08979730	      1.02236781	      0.29215536	    -14.74718504	     -0.70429998	     -1.56268877	    -12.86002324	     18.60667328	      6.13986075	      8.82565290	     32.02771406	     -0.56262126	     -1.65091575	     -6.95593955	      8.11696400	      4.99887994	      2.08848650	     -8.48658841	     -0.85178966	      4.05876876
      1.02533333	     -5.24012332	      1.58523740	     -3.51179776	      0.09640270	      1.02187048	      0.29188648	    -14.78059638	     -0.94407535	     -1.56289921	    -13.48400091	     18.25844764	      6.25185262	      8.86047512	     32.08727092	     -0.43564952	     -1.65468935	     -7.68880382	      7.65016264	      4.83083208	      2.08569341	     -8.40177438	     -1.13107234	      4.07091274
      1.02950000	     -5.24599720	      1.71034900	     -3.61958443	      0.10298689	      1.02143588	      0.29156522	    -14.79139747	     -1.18297547	     -1.60151069	    -14.15981198	     17.89709461	      6.39375620	      8.94007986	     32.14686970	     -0.30069942	     -1.62236728	     -8.43558716	      7.14018741	      4.58445420	      2.08566936	     -8.33388653	     -1.39781732	      4.07710570
      1.03366667	     -5.27206702	      1.83784598	     -3.70662576	      0.10955208	      1.02101035	      0.29116473	    -14.74198751	     -1.42840457	     -1.70597916	    -14.91383630	     17.58178592	      6.59872302	      9.16902646	     32.23774675	     -0.14797075	     -1.52118733	     -9.20654774	      6.61973655	      4.17604898	      2.09686835	     -8.23784339	     -1.64977527	      4.08669436
      1.03783333	     -5.26417510	      1.95572461	     -3.78691577	      0.11611014	      1.02073511	      0.29077337	    -14.72782803	     -1.65640532	     -1.73908716	    -15.64518548	     17.03923257	      6.61414043	     12.27231271	     32.29322811	     -0.00634288	     -1.44594638	     -9.98069133	      6.07602607	      3.85797614	      2.30895451	     -8.19978307	     -1.88796422	      4.03229934
